<svg viewBox="0 0 556 821" fill="none" xmlns="http://www.w3.org/2000/svg">
<path d="M131.999 735.997L131.999 742.277C131.999 783.698 165.578 817.277 206.999 817.277L321.504 817.277C362.925 817.277 396.504 783.698 396.504 742.277L396.504 400.139L396.504 79.0002C396.504 37.5789 430.082 4.00023 471.504 4.00024L556 4.00024" stroke="#CACACA" stroke-width="7"/>
<path d="M132 735.997L132 742.277C132 783.698 165.579 817.277 207 817.277L321.502 817.277C362.923 817.277 396.502 783.698 396.502 742.277L396.502 400.138L396.502 79.0001C396.502 37.5788 430.081 4.00011 471.502 4.00011L556 4.00012" stroke="#ffd047" stroke-width="7"/>
<g clip-path="url(#clip0_233_6)">
<path d="M178.98 644.944L178.952 644.967L178.925 644.991C170.301 652.537 163.668 662.132 160.012 672.849H104.439C100.778 662.124 94.1005 652.506 84.9184 644.941C68.5548 631.213 58.5231 610.631 59.0494 587.375C60.11 549.87 90.786 518.178 128.227 516.596L128.239 516.595L128.251 516.595C170.505 514.482 204.851 548.282 204.851 589.498C204.851 611.682 194.816 631.747 178.98 644.944Z" fill="#FFD15C" stroke="#FFD15C" stroke-width="6"/>
<path d="M124.8 676.948H129.75L107.75 594.999H109.4C112.15 594.999 114.9 593.899 117.1 591.699C118.2 590.599 119.3 590.049 120.95 590.049C122.6 590.049 123.7 590.599 124.8 591.699C128.65 596.098 135.25 596.098 139.1 591.699C140.2 590.599 141.3 590.049 142.95 590.049C144.05 590.049 145.7 590.599 146.8 591.699C149.001 593.899 151.2 594.999 154.5 594.999H156.15L134.7 676.948H139.65L162.2 591.148C162.2 590.049 162.2 588.948 161.1 588.399C160 587.848 158.9 588.399 158.35 588.949C157.251 590.049 156.15 590.599 155.05 590.599C153.4 590.599 152.301 590.049 150.651 588.949C148.45 586.749 146.251 585.649 143.5 585.649C140.75 585.649 138.55 586.749 136.35 588.949C134.15 591.149 130.85 591.149 128.65 588.949C127 586.749 124.251 585.649 121.5 585.649C118.75 585.649 116 586.749 114.35 588.949C113.25 590.049 111.6 590.599 109.95 590.599C108.85 590.599 107.2 590.049 106.65 588.949C106.1 588.399 105 587.849 103.9 588.399C102.801 588.949 102.25 590.049 102.801 591.148L124.8 676.948Z" fill="white"/>
<path d="M114.9 726.448C117.65 733.048 124.25 737.998 131.95 737.998C139.65 737.998 146.25 733.048 149 726.448H114.9Z" fill="#344A5E"/>
<path d="M152.301 726.999H112.15C110.849 727.004 109.559 726.752 108.355 726.256C107.152 725.761 106.058 725.031 105.138 724.111C104.217 723.191 103.488 722.097 102.993 720.894C102.497 719.69 102.245 718.4 102.25 717.099V675.298H162.201V717.099C162.201 722.598 157.8 726.999 152.301 726.999Z" fill="#344A5E"/>
<path d="M161.65 696.198H102.25C98.9504 696.198 96.2006 693.448 96.2006 690.148C96.2006 686.848 98.9504 684.099 102.25 684.099H161.65C164.95 684.099 167.7 686.848 167.7 690.148C167.7 693.448 164.95 696.198 161.65 696.198ZM161.65 715.449H102.25C98.9504 715.449 96.2006 712.699 96.2006 709.399C96.2006 706.099 98.9504 703.349 102.25 703.349H161.65C164.95 703.349 167.7 706.099 167.7 709.399C167.7 712.698 164.95 715.449 161.65 715.449Z" fill="#415A6B"/>
<path d="M131.95 473.998C129.201 473.998 126.45 476.199 126.45 479.499V498.199C126.45 500.949 128.65 503.699 131.95 503.699C135.25 503.699 137.451 501.499 137.451 498.199V479.499C137.451 476.199 134.7 473.998 131.95 473.998ZM58.2505 507.549C56.0503 505.348 52.7503 505.348 50.5507 507.549C48.351 509.749 48.3505 513.049 50.5507 515.248L63.7507 528.448C65.9509 530.649 69.2509 530.649 71.4505 528.448C73.6502 526.248 73.6507 522.948 71.4505 520.749L58.2505 507.549ZM41.2003 583.449H22.5002C19.7503 583.449 17 585.649 17 588.949C17 591.699 19.2002 594.449 22.5002 594.449H41.2003C43.9502 594.449 46.7005 592.249 46.7005 588.949C46.7005 586.198 43.9502 583.449 41.2003 583.449ZM63.7502 649.449L50.5502 662.649C48.35 664.849 48.35 668.149 50.5502 670.348C52.7503 672.548 56.0503 672.549 58.25 670.348L71.45 657.148C73.6502 654.948 73.6502 651.648 71.45 649.449C69.2498 647.249 65.9503 647.248 63.7502 649.449ZM200.151 649.449C197.95 647.248 194.65 647.248 192.45 649.449C190.25 651.649 190.25 654.949 192.45 657.148L205.65 670.348C207.85 672.549 211.15 672.549 213.35 670.348C215.55 668.148 215.55 664.848 213.35 662.649L200.151 649.449ZM241.401 583.449H222.7C219.951 583.449 217.2 585.649 217.2 588.949C217.2 591.699 219.4 594.449 222.7 594.449H241.401C244.15 594.449 246.901 592.249 246.901 588.949C246.9 586.198 244.701 583.449 241.401 583.449ZM205.65 507.549L192.45 520.749C190.25 522.949 190.25 526.249 192.45 528.448C194.65 530.649 197.95 530.649 200.15 528.448L213.35 515.248C215.55 513.048 215.55 509.748 213.35 507.549C211.15 505.349 207.85 505.348 205.65 507.549Z" fill="#FFD15C"/>
</g>
<defs>
<clipPath id="clip0_233_6">
<rect width="264" height="264" fill="white" transform="translate(0 473.998)"/>
</clipPath>
</defs>
</svg>
