<svg width="309" height="409" viewBox="0 0 309 409" fill="none" xmlns="http://www.w3.org/2000/svg">
<path d="M327.081 293.109L363.836 271.078L400.59 249.047L308.084 97.2284" stroke="#ffd047" stroke-width="3"/>
<path d="M279.453 416.545L335.112 382.366L301.264 322.447L257.231 348.256L214.052 274.332L275.623 235.461" stroke="#ffd047" stroke-width="3"/>
<path d="M159.062 275.722L230.512 393.724L299.611 352.019L312.999 375.365" stroke="#ffd047" stroke-width="3"/>
<path d="M260.851 280.155L297.605 258.124L340.384 231.455L294.721 156.648" stroke="#ffd047" stroke-width="3"/>
<path d="M230.435 55.227L276.098 130.034L170.736 195.378" stroke="#ffd047" stroke-width="3"/>
<path d="M315.149 228.782L293.763 191.649L267.377 149.414L172.009 209.212" stroke="#ffd047" stroke-width="3"/>
<path d="M260.851 333.394L313.492 303.323L353.419 373.867" stroke="#ffd047" stroke-width="3"/>
<path d="M229.863 345.425L184.411 270.165L271.865 216.606" stroke="#ffd047" stroke-width="3"/>
<path d="M187.985 302.726L166.649 266.847L264.428 205.415" stroke="#ffd047" stroke-width="3"/>
<path d="M148.605 281.88L211.374 385.076L128.412 435.212" stroke="#ffd047" stroke-width="3"/>
<path d="M128.325 292.836L182.722 380.266L127.364 413.207" stroke="#ffd047" stroke-width="3"/>
<path d="M298.207 338.423L252.312 364.72L197.431 271.822L213.044 262" stroke="#ffd047" stroke-width="3"/>
<path d="M145.259 253.563L265.332 179.827L296.828 233.763" stroke="#ffd047" stroke-width="3"/>
<path d="M263.471 306.479L328.72 267.116L365.474 245.085L259.264 70.6009" stroke="#ffd047" stroke-width="3"/>
</svg>
