<svg width="34" height="34" viewBox="0 0 34 34" fill="none" xmlns="http://www.w3.org/2000/svg">
  <path
    d="M33.1988 9.08318L31.9352 8.83405L31.0396 6.67227L31.757 5.60248C32.0249 5.20304 31.9745 4.68656 31.6344 4.34649L29.6536 2.36565C29.3135 2.02564 28.797 1.97525 28.3977 2.24307L27.3279 2.96051L25.1661 2.06491L24.9169 0.801298C24.8239 0.329478 24.4231 0 23.9421 0H21.1409C20.6599 0 20.259 0.329546 20.1661 0.801298L19.9169 2.06491L17.7551 2.96051L16.6852 2.243C16.2858 1.97518 15.7692 2.02571 15.4294 2.36571L13.4486 4.34649C13.1084 4.68656 13.058 5.20304 13.326 5.60241L14.0434 6.67227L13.5185 7.93925C13.5114 7.93729 13.5049 7.93426 13.4977 7.93257C12.5757 7.7225 11.6183 7.7225 10.6964 7.93257C10.5951 7.95576 10.5042 8.01172 10.438 8.09176C10.3717 8.17181 10.3337 8.27147 10.3298 8.37532L10.3266 8.46281C7.53417 9.2521 5.54318 11.8472 5.54318 14.7708V14.9552C5.45893 14.9919 5.38722 15.0524 5.33686 15.1293C5.28649 15.2061 5.25966 15.296 5.25964 15.3879V15.8525C5.25965 15.9489 5.28919 16.0431 5.34431 16.1223C5.39943 16.2014 5.47747 16.2618 5.56794 16.2953C5.75206 16.3635 5.93661 16.4304 6.12159 16.4962C6.0843 16.7687 6.06553 17.0434 6.0654 17.3184C6.0654 19.6935 7.44552 21.752 9.44575 22.735C7.38312 23.1947 5.4658 24.188 3.88262 25.6427C1.651 27.6932 0.272829 30.4786 0.00190429 33.4854C-0.00397979 33.5507 0.00380781 33.6166 0.0247708 33.6787C0.0457339 33.7409 0.0794126 33.798 0.123661 33.8464C0.16791 33.8948 0.221758 33.9334 0.281774 33.9599C0.34179 33.9863 0.406658 34 0.472245 34H23.7215C23.787 34 23.8519 33.9863 23.9119 33.9599C23.9719 33.9334 24.0258 33.8948 24.07 33.8464C24.1143 33.798 24.148 33.7409 24.1689 33.6787C24.1899 33.6166 24.1977 33.5507 24.1918 33.4854C23.9209 30.4785 22.5428 27.6932 20.3111 25.6427C18.728 24.188 16.8106 23.1948 14.748 22.735C15.8709 22.1823 16.7956 21.2961 17.3955 20.1977L17.755 19.9567L19.9167 20.8523L20.1658 22.1159C20.2573 22.5803 20.6673 22.9174 21.1407 22.9174H23.9419C24.4228 22.9174 24.8237 22.5878 24.9167 22.116L25.1659 20.8523L27.3277 19.9567L28.3974 20.6741C28.7968 20.942 29.3133 20.8916 29.6535 20.5516L31.6342 18.5708C31.9743 18.2307 32.0247 17.7142 31.7568 17.3148L31.0394 16.2449L31.935 14.0832L33.1986 13.8341C33.6704 13.7411 34 13.3403 34 12.8592V10.058C34 9.57713 33.6707 9.17628 33.1988 9.08318ZM10.2891 9.46359L10.1675 12.7402C10.1628 12.8653 10.2081 12.9872 10.2933 13.079C10.3785 13.1708 10.4967 13.2249 10.6218 13.2296C10.8835 13.2403 11.1015 13.0358 11.1112 12.7752L11.2593 8.78494C11.814 8.69694 12.3791 8.69694 12.9338 8.78494L13.0819 12.7752C13.0838 12.8375 13.098 12.8988 13.1236 12.9555C13.1493 13.0123 13.1859 13.0634 13.2314 13.106C13.277 13.1485 13.3304 13.1816 13.3888 13.2034C13.4471 13.2252 13.5092 13.2352 13.5715 13.2329C13.6337 13.2306 13.6949 13.216 13.7515 13.1899C13.8081 13.1638 13.8589 13.1269 13.9011 13.0811C13.9434 13.0353 13.9761 12.9816 13.9975 12.9231C14.0189 12.8645 14.0285 12.8024 14.0257 12.7402L13.9041 9.46359C16.1395 10.232 17.7059 12.3721 17.7059 14.7708V14.9157H6.4873V14.7708C6.4873 12.3721 8.05369 10.2319 10.2891 9.46359ZM18.6505 14.9552V14.7708C18.6505 13.0499 17.9605 11.4426 16.8236 10.2503C17.3884 7.55101 19.7565 5.61543 22.5413 5.61543C25.7632 5.61543 28.3845 8.23668 28.3845 11.4586C28.3845 14.6805 25.7632 17.3018 22.5413 17.3018C21.1993 17.3018 19.9301 16.8525 18.8992 16.0268C18.9219 15.9715 18.9337 15.9123 18.9341 15.8525V15.388C18.9341 15.1944 18.8173 15.0282 18.6505 14.9552ZM17.0182 15.8602C15.0401 16.5162 13.5538 16.7975 12.0966 16.8085C10.6394 16.7975 9.15324 16.5162 7.17514 15.8602H17.0182ZM19.2324 33.0557H16.6747V29.7812C16.6747 29.656 16.625 29.5359 16.5364 29.4473C16.4478 29.3587 16.3277 29.309 16.2025 29.309H7.99081C7.86557 29.309 7.74546 29.3587 7.6569 29.4473C7.56834 29.5359 7.51858 29.656 7.51858 29.7812V33.0557H4.96092V25.9269C5.89839 25.1557 6.95586 24.5433 8.09133 24.1139L10.4292 26.4518C10.8889 26.9115 11.4928 27.1413 12.0966 27.1413C12.7005 27.1413 13.3043 26.9115 13.7641 26.4518L16.102 24.1139C17.2375 24.5433 18.295 25.1557 19.2324 25.9269L19.2324 33.0557ZM15.7302 33.0557H8.46297V30.2534H15.7302V33.0557ZM13.0963 25.784C12.5451 26.3352 11.6481 26.3352 11.097 25.784L9.09988 23.7869C10.0538 23.5266 11.0586 23.3876 12.0965 23.3876C13.1344 23.3876 14.1394 23.5266 15.0933 23.7869L13.0963 25.784ZM4.01639 26.7996V33.0557H1.0002C1.33035 30.6189 2.41925 28.4575 4.01639 26.7996ZM23.1931 33.0557H20.1768V26.7996C21.774 28.4575 22.8629 30.6189 23.1931 33.0557ZM12.0967 22.4056C9.2916 22.4056 7.00952 20.1235 7.00952 17.3185C7.00952 17.148 7.01836 16.9776 7.03516 16.8084C9.03727 17.4611 10.5707 17.7419 12.0932 17.753H12.1001C13.6226 17.7419 15.156 17.4611 17.1581 16.8084C17.175 16.9776 17.1838 17.148 17.1838 17.3185C17.1838 20.1235 14.9018 22.4056 12.0967 22.4056ZM33.0557 12.8592C33.0557 12.8853 33.0417 12.9025 33.0161 12.9075L31.5043 13.2055C31.428 13.2206 31.3566 13.2542 31.2965 13.3035C31.2363 13.3528 31.1892 13.4162 31.1595 13.488L30.0702 16.1171C30.0405 16.189 30.0289 16.2671 30.0366 16.3445C30.0443 16.4219 30.071 16.4962 30.1143 16.5609L30.9727 17.8408C30.9872 17.8624 30.985 17.8845 30.9666 17.9029L28.9859 19.8836C28.9674 19.9021 28.9452 19.9042 28.9237 19.8897L27.6437 19.0314C27.579 18.9881 27.5047 18.9614 27.4273 18.9537C27.3499 18.946 27.2718 18.9576 27.1999 18.9874L24.5708 20.0766C24.4989 20.1064 24.4355 20.1534 24.3863 20.2136C24.337 20.2738 24.3033 20.3452 24.2883 20.4215L23.9902 21.9332C23.9852 21.9588 23.968 21.9729 23.9419 21.9729H21.1407C21.1146 21.9729 21.0975 21.9589 21.0924 21.9333L20.7943 20.4215C20.7793 20.3452 20.7456 20.2738 20.6963 20.2136C20.647 20.1534 20.5836 20.1063 20.5118 20.0766L17.892 18.9913C18.0491 18.4476 18.1286 17.8844 18.1283 17.3184C18.1282 17.0706 18.113 16.8229 18.0827 16.5769C19.3183 17.657 20.8825 18.2462 22.5414 18.2462C26.284 18.2462 29.329 15.2013 29.329 11.4586C29.329 7.71589 26.284 4.67098 22.5414 4.67098C20.9275 4.67098 19.3637 5.24716 18.1376 6.29328C17.1354 7.14897 16.4033 8.27727 16.0302 9.54111C15.496 9.13577 14.9024 8.81526 14.2705 8.59085L15.0125 6.79997C15.0422 6.7281 15.0538 6.64998 15.0461 6.57257C15.0384 6.49516 15.0117 6.42084 14.9684 6.35622L14.1101 5.07622C14.0956 5.05463 14.0977 5.03257 14.1161 5.01415L16.0969 3.03337C16.1154 3.01489 16.1375 3.01286 16.1591 3.0273L17.439 3.8856C17.5037 3.92893 17.578 3.95562 17.6554 3.96331C17.7328 3.97099 17.8109 3.95943 17.8828 3.92965L20.5119 2.84043C20.5838 2.81066 20.6472 2.76359 20.6964 2.70341C20.7457 2.64324 20.7794 2.57182 20.7944 2.49551L21.0926 0.983712C21.0976 0.958212 21.1147 0.94418 21.1408 0.94418H23.9421C23.9682 0.94418 23.9853 0.958212 23.9904 0.98378L24.2884 2.49551C24.3034 2.57183 24.3371 2.64325 24.3864 2.70343C24.4357 2.76361 24.4991 2.81067 24.5709 2.84043L27.2001 3.92965C27.272 3.95941 27.3501 3.97096 27.4275 3.96327C27.5049 3.95559 27.5792 3.92891 27.6438 3.8856L28.9237 3.0273C28.9454 3.01286 28.9674 3.01489 28.9859 3.03337L30.9667 5.01415C30.985 5.03257 30.9872 5.05463 30.9727 5.07628L30.1144 6.35622C30.071 6.42082 30.0443 6.49514 30.0366 6.57257C30.0289 6.64999 30.0405 6.72811 30.0703 6.79997L31.1595 9.42905C31.1893 9.50091 31.2363 9.56431 31.2965 9.6136C31.3567 9.66288 31.4281 9.69654 31.5044 9.71158L33.0161 10.0096C33.0417 10.0147 33.0558 10.0318 33.0558 10.0578L33.0557 12.8592ZM19.2886 12.1991H21.1246L19.9121 15.6118C19.8756 15.7146 19.8758 15.827 19.9128 15.9296C19.9498 16.0323 20.0212 16.1191 20.1149 16.1751C20.2085 16.2311 20.3187 16.2529 20.4267 16.2368C20.5346 16.2207 20.6337 16.1678 20.707 16.0869L26.144 10.0847C26.2054 10.017 26.2458 9.93286 26.2603 9.8426C26.2749 9.75233 26.2629 9.65979 26.2258 9.57621C26.1888 9.49263 26.1283 9.4216 26.0516 9.37176C25.975 9.32191 25.8855 9.29539 25.7941 9.29541H23.7723L24.8762 7.38351C24.9176 7.31172 24.9394 7.23029 24.9394 7.14742C24.9393 7.06454 24.9175 6.98313 24.8761 6.91136C24.8346 6.83958 24.775 6.77998 24.7033 6.73852C24.6315 6.69706 24.5501 6.67521 24.4672 6.67517H21.9421C21.8593 6.67517 21.778 6.69693 21.7063 6.73826C21.6346 6.7796 21.575 6.83905 21.5335 6.91068L18.88 11.4902C18.8384 11.562 18.8164 11.6434 18.8163 11.7264C18.8162 11.8093 18.838 11.8908 18.8794 11.9627C18.9208 12.0345 18.9804 12.0942 19.0523 12.1357C19.1241 12.1773 19.2056 12.1991 19.2886 12.1991ZM22.2142 7.61962H23.6493L22.5454 9.53153C22.504 9.60332 22.4822 9.68474 22.4822 9.76762C22.4823 9.85049 22.5041 9.9319 22.5455 10.0037C22.5869 10.0755 22.6465 10.1351 22.7183 10.1765C22.7901 10.218 22.8715 10.2398 22.9543 10.2399H24.7291L21.5928 13.7022L22.2385 11.885C22.2638 11.8137 22.2716 11.7374 22.2613 11.6625C22.251 11.5876 22.2228 11.5163 22.1792 11.4545C22.1356 11.3928 22.0778 11.3424 22.0107 11.3076C21.9436 11.2728 21.8691 11.2547 21.7935 11.2547H20.1079L22.2142 7.61962Z"
    fill="white" />
</svg>