<svg viewBox="0 0 100 100" fill="none" xmlns="http://www.w3.org/2000/svg">
  <circle cx="50" cy="50" r="50" fill="#ffd047" />
  <path
    d="M59.8216 53.6564L54.5452 59.0346C52.4055 61.2159 48.6408 61.2629 46.4549 59.0346L41.1782 53.6564L22.2271 72.9709C22.9325 73.3022 23.7103 73.5 24.5371 73.5H76.4629C77.2898 73.5 78.0673 73.3025 78.7725 72.971L59.8216 53.6564Z"
    fill="#1B1B1B" />
  <path
    d="M76.4629 28.5H24.5371C23.7102 28.5 22.9325 28.6978 22.2273 29.0291L42.478 49.6695C42.4793 49.6709 42.4809 49.6711 42.4823 49.6725C42.4831 49.6734 42.4837 49.6745 42.4839 49.6757L49.0685 56.387C49.7679 57.0975 51.2324 57.0975 51.9318 56.387L58.515 49.6769C58.515 49.6769 58.5166 49.6739 58.518 49.6725C58.518 49.6725 58.5209 49.6709 58.5223 49.6695L78.7725 29.029C78.0673 28.6975 77.2898 28.5 76.4629 28.5ZM19.5889 31.6515C19.2239 32.4012 19 33.2335 19 34.125V67.875C19 68.7665 19.2237 69.5987 19.5888 70.3485L38.5728 51.0006L19.5889 31.6515ZM81.4111 31.6512L62.4273 51.0006L81.4111 70.3487C81.7761 69.599 82 68.7667 82 67.875V34.125C82 33.2332 81.7761 32.401 81.4111 31.6512Z"
    fill="#1B1B1B" />
</svg>