<svg viewBox="0 0 100 100" fill="none" xmlns="http://www.w3.org/2000/svg">
<g clip-path="url(#clip0_296_26)">
<circle cx="50" cy="50" r="39" fill="#1B1B1B"/>
<path d="M85.3497 14.639C65.8206 -4.88428 34.1622 -4.87959 14.639 14.6497C-4.88428 34.179 -4.87959 65.8372 14.6497 85.3604C34.179 104.884 65.8372 104.879 85.3604 85.3497C90.0027 80.7061 93.6848 75.1935 96.1966 69.1269C98.7085 63.0602 100.001 56.5582 99.9998 49.9921C99.9988 43.426 98.7045 36.9244 96.1908 30.8585C93.6772 24.7926 89.9934 19.2812 85.3497 14.639ZM75.7229 69.6491L75.7163 69.6558V69.6392L73.1829 72.1558C71.5719 73.787 69.5676 74.9754 67.3633 75.606C65.1591 76.2366 62.8295 76.2882 60.5995 75.7558C56.0303 74.5327 51.6864 72.5859 47.7329 69.9892C44.0598 67.6418 40.656 64.8974 37.5829 61.8058C34.7555 58.9989 32.2151 55.917 29.9995 52.6058C27.5761 49.0429 25.6579 45.1616 24.2995 41.0724C23.536 38.717 23.4434 36.1956 24.0322 33.7906C24.6209 31.3856 25.8677 29.1921 27.6329 27.4558L30.5995 24.4892C31.4243 23.6606 32.7646 23.6577 33.5929 24.4825L33.5995 24.4892L42.9661 33.8558C43.7946 34.6806 43.7976 36.0208 42.9728 36.8491L42.9661 36.8558L37.4661 42.3558C35.888 43.9167 35.6896 46.3972 36.9995 48.1892C38.9888 50.9192 41.1901 53.4883 43.5829 55.8726C46.2507 58.5519 49.1509 60.9892 52.2495 63.156C54.0399 64.4048 56.4673 64.1942 58.0161 62.656L63.3327 57.256C64.1575 56.4274 65.4978 56.4245 66.3261 57.2493L66.3327 57.256L75.7161 66.656C76.5448 67.4806 76.5478 68.8206 75.7229 69.6491Z" fill="#ffd047"/>
</g>
<defs>
<clipPath id="clip0_296_26">
<rect width="100" height="100" fill="white"/>
</clipPath>
</defs>
</svg>
