<svg width="313" height="499" viewBox="0 0 313 499" fill="none" xmlns="http://www.w3.org/2000/svg">
<path d="M57.9141 459.671L97.8723 412.201C111.983 395.438 121.362 375.212 125.042 353.612L129.201 329.198C131.077 318.183 129.83 306.862 125.601 296.519V296.519C117.841 277.545 117.287 256.388 124.041 237.034L138.137 196.644" stroke="black"/>
<path d="M75.1366 466.873L119.642 409.299C126.799 400.04 131.967 389.403 134.822 378.053L141 353.5L145.966 327.12C147.942 316.622 146.68 305.771 142.349 296.006L141.218 293.456C135.166 279.813 133.702 264.575 137.045 250.029V250.029C139.34 240.046 142.836 230.379 147.456 221.237L156.423 203.493" stroke="black"/>
<path d="M138.007 197.466L130.125 190.177" stroke="black"/>
<line x1="130.607" y1="190.363" x2="152.879" y2="149.743" stroke="black"/>
<path d="M156.501 204.163L166.517 208.908" stroke="black"/>
<path d="M166.034 208.778L191.513 179.371" stroke="black"/>
<path d="M191.03 179.241L205.519 183.123" stroke="black"/>
<path d="M205.001 183.292L212.454 174.629" stroke="black"/>
<path d="M212.325 175.112V175.112C207.361 170.567 208.58 162.442 214.66 159.555L229.809 152.362L251.923 135.511" stroke="black"/>
<line x1="254.338" y1="136.159" x2="263.997" y2="138.747" stroke="black"/>
<path d="M251.44 135.382L263.997 138.747" stroke="black"/>
<path d="M263.572 138.827L273.252 129.321" stroke="black"/>
<path d="M273.123 129.804L256.178 106.111" stroke="black"/>
<path d="M252.728 109.327L297.26 64.8373" stroke="black"/>
<path d="M297.998 64.9631L279.504 46.1033" stroke="black"/>
<path d="M279.867 46.4465L237.998 90.8869" stroke="black"/>
<path d="M225.492 98.9241L270.542 52.502" stroke="black"/>
<path d="M271.307 52.8191L256.356 37.8305" stroke="black"/>
<path d="M256.485 37.3474L213.178 81.1305" stroke="black"/>
<line x1="152.873" y1="150.213" x2="146.061" y2="136.999" stroke="black"/>
<path d="M145.917 137.361L154.018 129.984" stroke="black"/>
<path d="M153.486 129.844C153.486 129.844 169.533 137.764 170.906 121.05C172.279 104.335 191.203 83.8507 188.951 86.5455" stroke="black"/>
<path d="M188.665 86.3398L182.682 77.1002" stroke="black"/>
<path d="M182.07 77.4539L194.645 65.2945" stroke="black"/>
<path d="M194.162 65.1646L219.69 76.146" stroke="black"/>
<line x1="239.444" y1="84.6318" x2="241.824" y2="87.3402" stroke="black"/>
</svg>
