<svg width="153" height="310" viewBox="0 0 153 310" fill="none" xmlns="http://www.w3.org/2000/svg">
<path d="M48.413 303.173V303.173C27.4445 275.047 17.3276 240.3 19.9204 205.314L21.413 185.173" stroke="black"/>
<path d="M77 304.173L48.2278 247.621C38.7314 228.956 36.3108 207.484 41.4131 187.173V187.173" stroke="black"/>
<line x1="20.7764" y1="185.62" x2="12.7764" y2="181.62" stroke="black"/>
<line x1="12.5143" y1="181.054" x2="23.5143" y2="136.054" stroke="black"/>
<path d="M41.098 187.683L52 189.673" stroke="black"/>
<path d="M51.5 189.673L68.5 154.673" stroke="black"/>
<path d="M68 154.673H83" stroke="black"/>
<path d="M82.543 154.97L87.5 144.673" stroke="black"/>
<path d="M87.5 145.173V145.173C81.5289 142.068 80.604 133.904 85.7293 129.542L98.5 118.673L115.5 96.6731" stroke="black"/>
<line x1="118" y1="96.6731" x2="128" y2="96.6731" stroke="black"/>
<path d="M115 96.6731H128" stroke="black"/>
<path d="M127.61 96.8608L134.5 85.1731" stroke="black"/>
<path d="M134.5 85.6731L112 67.1731" stroke="black"/>
<path d="M109.5 71.1731L141 16.6731" stroke="black"/>
<path d="M141.746 16.6035L119 3.1731" stroke="black"/>
<path d="M119.44 3.41063L90.5 57.1731" stroke="black"/>
<path d="M80.5 68.1731L112 11.6731" stroke="black"/>
<path d="M112.821 11.7815L94.5 1.1731" stroke="black"/>
<path d="M94.5 0.673096L64 54.1731" stroke="black"/>
<line x1="23.63" y1="136.509" x2="13.63" y2="125.509" stroke="black"/>
<path d="M13.5841 125.896L19.5 116.673" stroke="black"/>
<path d="M18.9504 116.676C18.9504 116.676 36.5 120.173 33.5001 103.673C30.5001 87.1727 43.4782 62.488 42.0002 65.6739" stroke="black"/>
<path d="M41.6707 65.5493L33.5 58.1731" stroke="black"/>
<path d="M33 58.6731L42.0001 43.6732" stroke="black"/>
<path d="M41.5 43.6729L69 47.6731" stroke="black"/>
<line x1="90.2774" y1="50.7571" x2="93.2774" y2="52.7571" stroke="black"/>
</svg>
