<svg width="31" height="33" viewBox="0 0 31 33" fill="none" xmlns="http://www.w3.org/2000/svg">
<g clip-path="url(#clip0_220_499)">
<path d="M10.6563 11.8594H7.26563V8.25C7.26563 8.11325 7.21459 7.9821 7.12376 7.8854C7.03292 7.7887 6.90972 7.73438 6.78125 7.73438C5.91905 7.73438 5.07621 8.00654 4.35931 8.51646C3.64242 9.02638 3.08367 9.75115 2.75371 10.5991C2.42376 11.4471 2.33743 12.3801 2.50564 13.2803C2.67385 14.1805 3.08904 15.0074 3.69871 15.6564C4.30838 16.3054 5.08514 16.7474 5.93078 16.9265C6.77642 17.1055 7.65294 17.0136 8.44951 16.6624C9.24608 16.3111 9.92693 15.7163 10.4059 14.9532C10.885 14.19 11.1406 13.2928 11.1406 12.375C11.1406 12.2382 11.0896 12.1071 10.9988 12.0104C10.9079 11.9137 10.7847 11.8594 10.6563 11.8594ZM6.29688 8.80223V12.1615L4.06875 14.5334C3.71508 14.033 3.4901 13.443 3.416 12.8218C3.34189 12.2006 3.42124 11.5695 3.64619 10.9909C3.87115 10.4122 4.23395 9.90602 4.69879 9.52222C5.16363 9.13841 5.71444 8.89025 6.29688 8.80223ZM6.78125 15.9844C6.05001 15.9843 5.33864 15.731 4.75463 15.2625L6.98275 12.8906H10.1385C10.0209 13.7494 9.61704 14.5345 9.00066 15.1025C8.38427 15.6705 7.59651 15.9835 6.78125 15.9844Z" fill="white"/>
<path d="M8.71875 10.8281H12.5938C12.7222 10.8281 12.8454 10.7738 12.9363 10.6771C13.0271 10.5804 13.0781 10.4493 13.0781 10.3125C13.0767 9.08219 12.617 7.9027 11.7997 7.03274C10.9825 6.16278 9.8745 5.67338 8.71875 5.67188C8.59029 5.67188 8.46708 5.7262 8.37624 5.8229C8.28541 5.9196 8.23438 6.05075 8.23438 6.1875V10.3125C8.23438 10.4493 8.28541 10.5804 8.37624 10.6771C8.46708 10.7738 8.59029 10.8281 8.71875 10.8281ZM9.20312 6.73973C9.92715 6.85241 10.5977 7.21077 11.1151 7.76155C11.6325 8.31234 11.9691 9.02614 12.075 9.79688H9.20312V6.73973ZM18.8906 13.4063C17.6452 13.4063 16.4278 13.7994 15.3923 14.5359C14.3568 15.2725 13.5497 16.3194 13.0731 17.5442C12.5965 18.769 12.4718 20.1168 12.7147 21.4171C12.9577 22.7174 13.5574 23.9118 14.4381 24.8492C15.3187 25.7866 16.4407 26.4251 17.6622 26.6837C18.8836 26.9423 20.1497 26.8096 21.3003 26.3023C22.4509 25.7949 23.4344 24.9358 24.1263 23.8334C24.8182 22.7311 25.1875 21.4351 25.1875 20.1094C25.1856 18.3322 24.5215 16.6284 23.3411 15.3718C22.1606 14.1152 20.5601 13.4083 18.8906 13.4063ZM16.4688 18.0469V15.0635C16.7784 14.8946 17.1029 14.7585 17.4375 14.6572V18.0469H16.4688ZM22.2812 19.0781V20.1094H15.5V19.0781H22.2812ZM20.3438 18.0469V14.6572C20.6784 14.7585 21.0029 14.8946 21.3125 15.0635V18.0469H20.3438ZM19.375 14.4638V18.0469H18.4062V14.4638C18.5661 14.4483 18.7269 14.4375 18.8906 14.4375C19.0543 14.4375 19.2152 14.4483 19.375 14.4638ZM15.5 15.7374V18.0469H15.0156C14.8872 18.0469 14.764 18.1012 14.6731 18.1979C14.5823 18.2946 14.5312 18.4257 14.5312 18.5625V20.625C14.5312 20.7618 14.5823 20.8929 14.6731 20.9896C14.764 21.0863 14.8872 21.1406 15.0156 21.1406H22.7656C22.8941 21.1406 23.0173 21.0863 23.1081 20.9896C23.199 20.8929 23.25 20.7618 23.25 20.625V18.5625C23.25 18.4257 23.199 18.2946 23.1081 18.1979C23.0173 18.1012 22.8941 18.0469 22.7656 18.0469H22.2812V15.7374C23.1484 16.4954 23.7673 17.5268 24.049 18.683C24.3307 19.8392 24.2605 21.0608 23.8487 22.1719H13.9326C13.5207 21.0608 13.4506 19.8392 13.7323 18.683C14.0139 17.5268 14.6328 16.4954 15.5 15.7374ZM18.8906 25.7813C18.0044 25.7803 17.1325 25.544 16.3537 25.0938C15.5749 24.6436 14.9139 23.9938 14.4305 23.2031H23.3507C22.8674 23.9938 22.2064 24.6436 21.4276 25.0938C20.6488 25.544 19.7768 25.7803 18.8906 25.7813Z" fill="white"/>
<path d="M29.8719 28.4919L27.7765 26.2613C27.8734 26.0671 27.9094 25.8451 27.8793 25.6275C27.8493 25.41 27.7547 25.2084 27.6094 25.0522L26.3766 23.7399C26.9704 22.366 27.2176 20.8511 27.094 19.3445C26.9705 17.8379 26.4803 16.3916 25.6719 15.148V2.0625C25.6719 1.65224 25.5188 1.25879 25.2463 0.968694C24.9738 0.678599 24.6041 0.515625 24.2188 0.515625H1.9375C1.55211 0.515625 1.1825 0.678599 0.909985 0.968694C0.637472 1.25879 0.484375 1.65224 0.484375 2.0625V21.6563C0.484375 22.0665 0.637472 22.46 0.909985 22.7501C1.1825 23.0402 1.55211 23.2031 1.9375 23.2031H11.1958C11.5908 24.327 12.1992 25.3521 12.9829 26.2145C13.7666 27.0769 14.7089 27.7581 15.751 28.2155C16.7931 28.673 17.9125 28.8969 19.0395 28.8733C20.1665 28.8497 21.2768 28.5791 22.3011 28.0784L23.5338 29.3906C23.6795 29.5473 23.869 29.6494 24.0739 29.6815C24.2787 29.7136 24.4878 29.6739 24.6697 29.5685L26.7651 31.7991C27.1771 32.2377 27.7359 32.4841 28.3185 32.4841C28.9011 32.4841 29.4599 32.2377 29.8719 31.7991C30.2839 31.3605 30.5153 30.7657 30.5153 30.1455C30.5153 29.5253 30.2839 28.9305 29.8719 28.4919ZM1.9375 1.54688H24.2188C24.3472 1.54688 24.4704 1.6012 24.5613 1.6979C24.6521 1.7946 24.7031 1.92575 24.7031 2.0625V3.60938H1.45313V2.0625C1.45313 1.92575 1.50416 1.7946 1.595 1.6979C1.68583 1.6012 1.80904 1.54688 1.9375 1.54688ZM1.9375 22.1719C1.80904 22.1719 1.68583 22.1176 1.595 22.0209C1.50416 21.9242 1.45313 21.793 1.45313 21.6563V4.64063H24.7031V13.9069C24.0021 13.1654 23.1819 12.5637 22.2813 12.1306V6.1875C22.2813 6.05075 22.2302 5.9196 22.1394 5.8229C22.0485 5.7262 21.9253 5.67188 21.7969 5.67188H19.8594C19.7309 5.67188 19.6077 5.7262 19.5169 5.8229C19.426 5.9196 19.375 6.05075 19.375 6.1875V11.37C19.2137 11.3597 19.0543 11.3438 18.8906 11.3438C18.7269 11.3438 18.5675 11.3597 18.4063 11.37V9.28125C18.4063 9.1445 18.3552 9.01335 18.2644 8.91665C18.1735 8.81995 18.0503 8.76563 17.9219 8.76563H15.9844C15.8559 8.76563 15.7327 8.81995 15.6419 8.91665C15.551 9.01335 15.5 9.1445 15.5 9.28125V12.1306C13.7482 12.9637 12.3275 14.426 11.4863 16.2617C10.6451 18.0973 10.437 20.1894 10.8984 22.1719H1.9375ZM21.3125 11.732C20.9945 11.6299 20.671 11.5487 20.3438 11.4886V6.70313H21.3125V11.732ZM17.4375 11.4886C17.1102 11.5487 16.7867 11.6299 16.4688 11.732V9.79688H17.4375V11.4886ZM11.625 20.1094C11.625 18.5797 12.0511 17.0843 12.8495 15.8124C13.6478 14.5405 14.7826 13.5491 16.1102 12.9637C17.4378 12.3783 18.8987 12.2252 20.3081 12.5236C21.7175 12.822 23.0121 13.5587 24.0282 14.6403C25.0443 15.722 25.7363 17.1002 26.0166 18.6005C26.297 20.1008 26.1531 21.6559 25.6032 23.0692C25.0533 24.4825 24.122 25.6904 22.9272 26.5403C21.7324 27.3901 20.3276 27.8438 18.8906 27.8438C16.9643 27.8414 15.1176 27.0258 13.7555 25.5758C12.3934 24.1259 11.6272 22.1599 11.625 20.1094ZM23.1928 27.5694C24.2936 26.8473 25.2202 25.8609 25.8986 24.6892L26.9245 25.7813L24.2188 28.6615L23.1928 27.5694ZM28.3185 31.4531C28.1571 31.4536 27.9973 31.4199 27.8482 31.3541C27.6991 31.2884 27.5638 31.1918 27.45 31.07L25.388 28.875L27.125 27.026L29.187 29.221C29.3587 29.4039 29.4757 29.6368 29.5231 29.8905C29.5704 30.1441 29.5461 30.407 29.4532 30.6459C29.3602 30.8848 29.2028 31.089 29.0008 31.2327C28.7989 31.3764 28.5614 31.4531 28.3185 31.4531Z" fill="white"/>
<path d="M8.71875 18.0469H2.90625C2.77779 18.0469 2.65458 18.1012 2.56375 18.1979C2.47291 18.2946 2.42188 18.4257 2.42188 18.5625V20.625C2.42188 20.7618 2.47291 20.8929 2.56375 20.9896C2.65458 21.0863 2.77779 21.1406 2.90625 21.1406H8.71875C8.84721 21.1406 8.97042 21.0863 9.06126 20.9896C9.15209 20.8929 9.20312 20.7618 9.20312 20.625V18.5625C9.20312 18.4257 9.15209 18.2946 9.06126 18.1979C8.97042 18.1012 8.84721 18.0469 8.71875 18.0469ZM8.23438 20.1094H3.39062V19.0781H8.23438V20.1094Z" fill="white"/>
</g>
<defs>
<clipPath id="clip0_220_499">
<rect width="31" height="33" fill="white"/>
</clipPath>
</defs>
</svg>
