<svg viewBox="0 0 34 32" fill="none" xmlns="http://www.w3.org/2000/svg">
  <g clip-path="url(#clip0_220_479)">
    <path
      d="M10.7916 8.25201L12.7077 11.4928V12.2885C12.4493 12.4597 12.2795 12.7453 12.2795 13.0684V14.0138C12.2795 14.5365 12.7231 14.9617 13.2683 14.9617H13.3688C13.4363 16.0736 14.401 16.9584 15.5775 16.9584C16.754 16.9584 17.7186 16.0736 17.7861 14.9617H17.8866C18.4318 14.9617 18.8753 14.5364 18.8753 14.0138V13.0684C18.8753 12.7453 18.7055 12.4597 18.4472 12.2885V11.4929L20.3633 8.25201C20.3668 8.24607 20.3701 8.24014 20.3733 8.23408C20.7608 7.55523 20.982 6.8183 21.0307 6.04352C21.0352 5.98235 21.027 5.92093 21.0066 5.86282C20.9862 5.8047 20.954 5.75104 20.9118 5.70494C20.8696 5.65883 20.8183 5.62121 20.7609 5.59423C20.7034 5.56725 20.641 5.55146 20.5771 5.54777C20.5133 5.54408 20.4493 5.55256 20.3889 5.57272C20.3285 5.59288 20.2728 5.62433 20.2252 5.66524C20.1775 5.70614 20.1388 5.7557 20.1112 5.81105C20.0837 5.86639 20.0679 5.92642 20.0647 5.98767C20.0243 6.62897 19.8404 7.2386 19.5182 7.79949L19.514 7.80685L17.5966 11.05C17.5198 11.18 17.4794 11.3268 17.4793 11.4761V12.1207H16.0613V8.47444L18.5216 6.14682C18.6638 6.01222 18.7425 5.83248 18.7432 5.64085C18.7438 5.44923 18.6663 5.26911 18.525 5.13371L17.6435 4.28873C17.5745 4.2222 17.4925 4.16945 17.402 4.13354C17.3116 4.09764 17.2147 4.07928 17.1168 4.07954C17.019 4.0793 16.922 4.09766 16.8316 4.13355C16.7412 4.16945 16.6591 4.22217 16.5901 4.28867L16.4244 4.44745L16.0088 4.16446C15.8827 4.07875 15.732 4.03271 15.5775 4.03271C15.4229 4.03271 15.2722 4.07875 15.1461 4.16446L14.7304 4.44751L14.5648 4.28879C14.4958 4.22226 14.4137 4.16952 14.3233 4.13361C14.2328 4.09771 14.1359 4.07935 14.038 4.0796C13.9402 4.07935 13.8432 4.09771 13.7528 4.13361C13.6624 4.1695 13.5803 4.22223 13.5113 4.28873L12.6299 5.13371C12.4885 5.26917 12.411 5.44935 12.4117 5.64098C12.4123 5.8326 12.491 6.01229 12.6334 6.14688L15.0935 8.47444V12.1207H13.6755V11.4762C13.6755 11.3271 13.6351 11.1798 13.5584 11.0501L11.6403 7.80598L11.6367 7.79949C11.2737 7.16759 11.0818 6.4499 11.0818 5.72405C11.0818 4.56744 11.5533 3.48154 12.4092 2.66636C13.2579 1.85818 14.3818 1.41426 15.5773 1.41426C15.5875 1.41426 15.598 1.41426 15.6082 1.41438C17.4469 1.42613 19.124 2.54705 19.7814 4.20356C19.8271 4.31855 19.9185 4.41146 20.0356 4.46184C20.1527 4.51222 20.2858 4.51594 20.4058 4.47219C20.5258 4.42844 20.6227 4.34079 20.6752 4.22854C20.7278 4.11629 20.7317 3.98862 20.686 3.87363C19.8876 1.86202 17.8496 0.500862 15.6147 0.486574L15.5772 0.48645C14.1245 0.48645 12.7585 1.02606 11.7272 2.00812C10.6869 2.99877 10.114 4.31842 10.114 5.72405C10.114 6.60138 10.345 7.46925 10.782 8.23488C10.785 8.24063 10.7882 8.24638 10.7916 8.25201ZM13.473 5.63758L14.0381 5.0958L14.1793 5.23113C14.3035 5.35078 14.4681 5.42422 14.6435 5.43837C14.819 5.45252 14.994 5.40646 15.1374 5.30839L15.5775 5.00871L16.0177 5.30839C16.161 5.40648 16.3361 5.45257 16.5115 5.43842C16.687 5.42427 16.8516 5.3508 16.9758 5.23113L17.117 5.0958L17.6821 5.63758L15.5776 7.62865L13.473 5.63758ZM15.5775 16.0306C14.9349 16.0306 14.4044 15.5615 14.3393 14.9617H16.8157C16.7505 15.5615 16.2201 16.0306 15.5775 16.0306ZM17.9076 14.0138C17.9075 14.0191 17.9053 14.0242 17.9014 14.028C17.8975 14.0317 17.8922 14.0338 17.8867 14.0339H13.2683C13.2628 14.0338 13.2575 14.0317 13.2536 14.028C13.2497 14.0242 13.2474 14.0191 13.2474 14.0138V13.0684C13.2474 13.0574 13.2568 13.0484 13.2683 13.0484H17.8867C17.8982 13.0484 17.9076 13.0574 17.9076 13.0684V14.0138ZM21.8728 2.69575C21.9571 2.69572 22.04 2.6745 22.1131 2.6342L22.6821 2.32141C22.7379 2.29143 22.787 2.25116 22.8264 2.20291C22.8659 2.15466 22.8949 2.0994 22.912 2.04031C22.929 1.98123 22.9336 1.91949 22.9256 1.85867C22.9176 1.79786 22.8971 1.73916 22.8653 1.68598C22.8335 1.6328 22.791 1.58619 22.7403 1.54885C22.6896 1.51151 22.6317 1.48417 22.5699 1.46841C22.5081 1.45266 22.4437 1.4488 22.3803 1.45707C22.3169 1.46533 22.2559 1.48555 22.2007 1.51656L21.6317 1.82936C21.5391 1.88022 21.4666 1.95899 21.4256 2.05341C21.3846 2.14782 21.3772 2.2526 21.4047 2.35143C21.4322 2.45026 21.493 2.5376 21.5777 2.59987C21.6623 2.66214 21.7661 2.69585 21.8728 2.69575ZM21.8695 6.17243C21.8185 6.28532 21.8163 6.41301 21.8635 6.52742C21.9107 6.64183 22.0033 6.7336 22.1211 6.78255L22.7978 7.06368C22.8606 7.08972 22.9258 7.10203 22.99 7.10203C23.1013 7.10204 23.2092 7.06528 23.2956 6.99794C23.3819 6.93061 23.4414 6.83681 23.464 6.73235C23.4867 6.62788 23.471 6.51913 23.4198 6.42441C23.3686 6.32969 23.2849 6.25479 23.1828 6.21232L22.506 5.9312C22.3882 5.88229 22.255 5.88022 22.1356 5.92546C22.0163 5.9707 21.9205 6.05953 21.8695 6.17243ZM8.54071 2.32147L9.10986 2.63426C9.16499 2.66457 9.22581 2.68418 9.28884 2.69195C9.35188 2.69973 9.41589 2.69552 9.47723 2.67958C9.53856 2.66363 9.59602 2.63626 9.64632 2.59902C9.69662 2.56178 9.73878 2.51541 9.77038 2.46256C9.80199 2.4097 9.82243 2.3514 9.83053 2.29097C9.83863 2.23054 9.83423 2.16918 9.8176 2.11038C9.80096 2.05158 9.7724 1.9965 9.73355 1.94828C9.69471 1.90007 9.64634 1.85966 9.5912 1.82936L9.02205 1.51656C8.9669 1.48578 8.90593 1.46575 8.84267 1.45765C8.77941 1.44954 8.7151 1.45351 8.65345 1.46933C8.59179 1.48514 8.53401 1.5125 8.48343 1.54981C8.43285 1.58712 8.39047 1.63366 8.35873 1.68674C8.32698 1.73982 8.30651 1.7984 8.29848 1.85909C8.29045 1.91979 8.29502 1.98141 8.31194 2.04041C8.32885 2.0994 8.35777 2.15461 8.39704 2.20285C8.4363 2.25108 8.48513 2.2914 8.54071 2.32147ZM8.23281 7.10203C8.29701 7.10203 8.36231 7.08972 8.42496 7.06368L9.10174 6.78255C9.16005 6.75833 9.21281 6.72333 9.25702 6.67956C9.30122 6.63579 9.336 6.5841 9.35937 6.52745C9.38273 6.47079 9.39423 6.41028 9.3932 6.34937C9.39217 6.28845 9.37864 6.22833 9.35337 6.17243C9.32811 6.11652 9.2916 6.06594 9.24594 6.02357C9.20028 5.98119 9.14636 5.94785 9.08726 5.92545C9.02816 5.90305 8.96504 5.89203 8.9015 5.89301C8.83795 5.894 8.77524 5.90697 8.71692 5.9312L8.04015 6.21232C7.93793 6.25469 7.85408 6.32957 7.80275 6.42432C7.75142 6.51906 7.73576 6.62788 7.75839 6.73242C7.78103 6.83695 7.84058 6.9308 7.92701 6.99813C8.01344 7.06546 8.12144 7.10216 8.23281 7.10203ZM20.7753 9.55917C20.7753 9.68221 20.8262 9.8002 20.917 9.8872C21.0077 9.9742 21.1308 10.0231 21.2592 10.0231H29.5613V20.7298C29.5613 20.986 29.7779 21.1938 30.0452 21.1938C30.3125 21.1938 30.5291 20.986 30.5291 20.7298V9.97402C30.5291 9.48952 30.1179 9.09527 29.6125 9.09527H21.2592C21.1308 9.09527 21.0077 9.14414 20.917 9.23114C20.8262 9.31814 20.7753 9.43614 20.7753 9.55917Z"
      fill="white" />
    <path
      d="M30.0452 27.8878C29.9168 27.8878 29.7937 27.9367 29.703 28.0237C29.6122 28.1107 29.5612 28.2287 29.5612 28.3517V30.279H3.99116C2.38746 30.279 1.06152 29.078 0.972546 27.5447C0.926735 26.7552 1.21818 25.9996 1.79314 25.4169C2.37907 24.823 3.20431 24.4825 4.05717 24.4825H4.55534C4.97435 24.4825 5.31529 24.1556 5.31529 23.754V14.3127C5.31529 14.1897 5.2643 14.0717 5.17355 13.9847C5.0828 13.8977 4.95971 13.8488 4.83137 13.8488C4.70303 13.8488 4.57994 13.8977 4.48919 13.9847C4.39844 14.0717 4.34745 14.1897 4.34745 14.3127V23.5547H4.05717C2.93945 23.5547 1.85799 24.001 1.08998 24.7793C1.04825 24.8218 1.00751 24.8652 0.967771 24.9094V11.054C0.967771 9.45075 2.32842 8.14637 4.00084 8.14637H4.34739V12.3357C4.34739 12.4588 4.39837 12.5768 4.48912 12.6638C4.57988 12.7508 4.70296 12.7996 4.83131 12.7996C4.95965 12.7996 5.08274 12.7508 5.17349 12.6638C5.26424 12.5768 5.31522 12.4588 5.31522 12.3357V10.023H9.8956C10.0239 10.023 10.147 9.97415 10.2378 9.88715C10.3285 9.80015 10.3795 9.68215 10.3795 9.55912C10.3795 9.43608 10.3285 9.31809 10.2378 9.23109C10.147 9.14409 10.0239 9.09521 9.8956 9.09521H5.31529V7.94702C5.31529 7.54534 4.97435 7.21851 4.55534 7.21851H4.0009C1.79482 7.21857 0 8.93916 0 11.054C0 11.054 0.00219376 27.5263 0.00625867 27.5962C0.123689 29.6209 1.87412 31.2068 3.99116 31.2068H29.6125C30.1179 31.2068 30.5291 30.8127 30.5291 30.3281V28.3517C30.5291 28.2287 30.4781 28.1107 30.3873 28.0237C30.2966 27.9367 30.1735 27.8878 30.0452 27.8878Z"
      fill="white" />
    <path
      d="M31.2984 22.1217H10.9975C10.9163 22.1217 10.8363 22.1413 10.765 22.1787L7.40368 23.9436C7.29191 24.0023 7.19867 24.0887 7.13372 24.1938C7.06877 24.2989 7.03452 24.4188 7.03455 24.541C7.03455 24.7898 7.17598 25.0187 7.40374 25.1383L10.7651 26.9032C10.8364 26.9406 10.9163 26.9602 10.9976 26.9602H13.8487C13.977 26.9602 14.1001 26.9113 14.1909 26.8243C14.2816 26.7373 14.3326 26.6193 14.3326 26.4963C14.3326 26.3733 14.2816 26.2553 14.1909 26.1683C14.1001 26.0813 13.977 26.0324 13.8487 26.0324H11.4815V23.0495H26.2445V26.0324H15.911C15.7826 26.0324 15.6595 26.0813 15.5688 26.1683C15.478 26.2553 15.427 26.3733 15.427 26.4963C15.427 26.6193 15.478 26.7373 15.5688 26.8243C15.6595 26.9113 15.7826 26.9602 15.911 26.9602H31.2984C32.2701 26.9602 33.0607 26.2024 33.0607 25.2708V23.811C33.0607 22.8795 32.2701 22.1217 31.2984 22.1217ZM10.5136 23.3686V25.7132L8.2808 24.5409L10.5136 23.3686ZM27.2123 23.0495H28.3224V26.0324H27.2123V23.0495ZM32.0928 25.2708C32.0928 25.6907 31.7365 26.0324 31.2984 26.0324H29.2902V23.0495H31.2984C31.7364 23.0495 32.0928 23.3911 32.0928 23.8111V25.2708ZM24.7369 18.7489H9.78726C8.26944 18.7489 7.03455 19.9327 7.03455 21.3878V21.8648C7.03455 21.9878 7.08553 22.1058 7.17628 22.1928C7.26703 22.2798 7.39012 22.3287 7.51846 22.3287C7.64681 22.3287 7.76989 22.2798 7.86064 22.1928C7.9514 22.1058 8.00238 21.9878 8.00238 21.8648V21.3878C8.00238 20.4443 8.80304 19.6767 9.78726 19.6767H24.7369C26.1738 19.6767 27.3427 18.5561 27.3427 17.1787C27.3427 15.8013 26.1738 14.6807 24.7369 14.6807H20.0476C19.7803 14.6807 19.5637 14.8884 19.5637 15.1446C19.5637 15.4008 19.7803 15.6085 20.0476 15.6085H24.7369C25.6401 15.6085 26.3749 16.3129 26.3749 17.1787C26.3749 18.0445 25.6401 18.7489 24.7369 18.7489Z"
      fill="white" />
  </g>
  <defs>
    <clipPath id="clip0_220_479">
      <rect width="33.0606" height="31.6933" fill="white" />
    </clipPath>
  </defs>
</svg>