<svg xmlns="http://www.w3.org/2000/svg" version="1.1" xmlns:xlink="http://www.w3.org/1999/xlink"
  x="0" y="0" viewBox="0 0 512 512" style="enable-background:new 0 0 512 512" xml:space="preserve"
  class=""><g><path d="M330.323 173.419c0-13.661-11.113-24.774-24.774-24.774s-24.774 11.113-24.774 24.774c0 13.661 11.113 24.774 24.774 24.774s24.774-11.113 24.774-24.774zm-33.033 0c0-4.553 3.705-8.258 8.258-8.258 4.553 0 8.258 3.705 8.258 8.258 0 4.553-3.705 8.258-8.258 8.258-4.553 0-8.258-3.704-8.258-8.258z" fill="#ffffff" opacity="1" data-original="#000000" class=""></path><path d="M478.968 132.129h16.516c9.107 0 16.516-7.41 16.516-16.516V33.032c0-9.107-7.41-16.516-16.516-16.516h-16.516c-9.107 0-16.516 7.41-16.516 16.516v.958a24.861 24.861 0 0 0-6.841-.958h-91.669c-29.211 0-56.673 11.375-77.328 32.031a19.802 19.802 0 0 0-5.839 14.098c0 10.993 8.944 19.936 19.936 19.936a19.81 19.81 0 0 0 14.098-5.839c6.886-6.885 16.04-10.677 25.777-10.677 21.663 0 39.287 17.624 39.287 39.287v61.231c-9.611 3.409-16.516 12.588-16.516 23.354v74.323h-33.032v-55.124c19.978-9.481 33.032-29.783 33.032-52.231 0-31.874-25.932-57.806-57.806-57.806s-57.806 25.932-57.806 57.806c0 22.45 13.054 42.751 33.032 52.231v55.123h-33.099c-.502-10.012-4.831-19.199-11.949-25.853l6.178-6.178a19.803 19.803 0 0 0 5.839-14.098c0-9.825-7.15-17.992-16.516-19.621V77.742c0-7.19-2.067-14.061-5.921-19.936 3.853-5.876 5.92-12.747 5.92-19.936V16.516C231.226 7.41 223.816 0 214.71 0h-16.516c-9.107 0-16.516 7.41-16.516 16.516V37.87c0 7.19 2.067 14.061 5.921 19.936-3.854 5.876-5.921 12.747-5.921 19.936v137.282c-9.366 1.629-16.516 9.797-16.516 19.621a19.807 19.807 0 0 0 5.839 14.098l6.177 6.178c-7.118 6.654-11.448 15.841-11.949 25.853h-49.615v-66.653c27.977-4.02 49.548-28.148 49.548-57.218v-16.516c0-31.874-25.932-57.806-57.806-57.806h-8.258v49.548H66.065V82.581h-8.258C25.932 82.581 0 108.513 0 140.387v16.516c0 29.071 21.571 53.199 49.548 57.218v66.653H24.774C11.113 280.774 0 291.889 0 305.548V470.71C0 493.477 18.523 512 41.29 512h429.42c22.767 0 41.29-18.523 41.29-41.29V305.548c0-13.66-11.113-24.774-24.774-24.774h-41.29v-74.323c0-10.765-6.905-19.945-16.516-23.354v-46.132c0-11.774 9.579-21.353 21.353-21.353h4.838c2.348 0 4.644-.33 6.841-.958v.958c0 9.107 7.409 16.517 16.516 16.517zm0-99.097h16.516v82.581h-16.516V33.032zm-82.581 115.613h16.516v33.032h-16.516v-33.032zm-8.258 49.549h33.032c4.553 0 8.258 3.705 8.258 8.258v123.871h-49.548V206.452c0-4.554 3.705-8.258 8.258-8.258zm-57.806 189.935v16.516c0 13.66-11.114 24.774-24.774 24.774h-99.097c-13.66 0-24.774-11.114-24.774-24.774v-16.516c0-1.208.267-2.353.735-3.387 2.083 6.737 8.37 11.645 15.781 11.645h115.613c7.412 0 13.698-4.908 15.781-11.645a8.211 8.211 0 0 1 .735 3.387zm-148.646-41.29v16.516H16.516v-16.516h165.161zm10.387-82.581h28.775c6.446 3.907 10.387 10.825 10.387 18.466v47.598h-49.548v-47.598c-.001-7.641 3.94-14.559 10.386-18.466zm6.13 82.581h115.613v33.032H198.194v-33.032zm132.129 16.516v-16.516h165.161v16.516H330.323zm33.032-66.065v33.032h-33.032V297.29h33.032zm-99.097-123.871c0-22.767 18.523-41.29 41.29-41.29s41.29 18.523 41.29 41.29c0 17.465-11.062 33.111-27.527 38.932l-5.505 1.947v116.025H297.29V214.298l-5.505-1.947c-16.465-5.821-27.527-21.467-27.527-38.932zm16.516 156.904h-33.032V297.29h33.032v33.033zm-82.58-313.807h16.516V37.87c0 4.258-1.345 8.299-3.802 11.678h-8.914a19.772 19.772 0 0 1-3.801-11.678V16.516zm3.801 49.549h8.914a19.773 19.773 0 0 1 3.802 11.678V214.71h-16.516V77.742a19.759 19.759 0 0 1 3.8-11.677zm-16.898 165.161h42.708a3.424 3.424 0 0 1 3.42 3.42c0 .914-.356 1.772-1.001 2.419l-10.677 10.678h-26.19l-10.678-10.678a3.422 3.422 0 0 1 2.418-5.839zm-19.936 66.064v33.032h-49.548V297.29h49.548zM16.516 156.903v-16.516c0-19.939 14.209-36.623 33.032-40.46v48.718h66.065V99.927c18.823 3.837 33.032 20.521 33.032 40.46v16.516c0 22.767-18.523 41.29-41.29 41.29h-8.258v132.129H66.065V198.194h-8.258c-22.768 0-41.291-18.523-41.291-41.291zm8.258 140.387h24.774v33.032H16.516v-24.774c0-4.553 3.705-8.258 8.258-8.258zM470.71 495.484H41.29c-13.661 0-24.774-11.114-24.774-24.774v-90.839h150.066a24.649 24.649 0 0 0-1.42 8.258v16.516c0 22.767 18.523 41.29 41.29 41.29h99.097c22.767 0 41.29-18.523 41.29-41.29v-16.516c0-2.895-.504-5.673-1.42-8.258h150.066v90.839c-.001 13.66-11.114 24.774-24.775 24.774zm16.516-198.194c4.553 0 8.258 3.705 8.258 8.258v24.774h-49.548V297.29h41.29zM461.45 96.678a8.207 8.207 0 0 1-5.84 2.419h-4.838c-19.241 0-35.166 14.429-37.549 33.032h-16.836v-10.262c0-30.771-25.033-55.803-55.803-55.803-14.148 0-27.45 5.509-37.454 15.515a3.402 3.402 0 0 1-2.419 1.001 3.424 3.424 0 0 1-3.42-3.42c0-.914.356-1.773 1.002-2.42 17.534-17.536 40.848-27.193 65.647-27.193h91.669c2.206 0 4.28.859 5.84 2.419l1.001 1.001v42.708l-1 1.003z" fill="#ffffff" opacity="1" data-original="#000000" class=""></path></g></svg>