<svg width="341" height="270" viewBox="0 0 341 270" fill="none" xmlns="http://www.w3.org/2000/svg">
<path d="M85 0C73.8376 0 62.7846 2.1986 52.4719 6.47025C42.1592 10.7419 32.7889 17.0029 24.8959 24.8959C17.0029 32.7889 10.7419 42.1592 6.47024 52.4719C2.19859 62.7846 -4.87922e-07 73.8376 0 85L85 85L85 0Z" fill="#6EF084"/>
<path d="M341 100C329.838 100 318.785 102.199 308.472 106.47C298.159 110.742 288.789 117.003 280.896 124.896C273.003 132.789 266.742 142.159 262.47 152.472C258.199 162.785 256 173.838 256 185H341V100Z" fill="#6EF085"/>
<path d="M256 0C256 11.1624 258.199 22.2154 262.47 32.5281C266.742 42.8408 273.003 52.2111 280.896 60.1041C288.789 67.9971 298.159 74.2581 308.472 78.5298C318.785 82.8014 329.838 85 341 85V0L298.5 0H256Z" fill="#FFC4E4"/>
<path d="M171 100C171 111.162 173.199 122.215 177.47 132.528C181.742 142.841 188.003 152.211 195.896 160.104C203.789 167.997 213.159 174.258 223.472 178.53C233.785 182.801 244.838 185 256 185V100L171 100Z" fill="#50D6FA"/>
<path d="M256 185C256 196.162 258.199 207.215 262.47 217.528C266.742 227.841 273.003 237.211 280.896 245.104C288.789 252.997 298.159 259.258 308.472 263.53C318.785 267.801 329.838 270 341 270V185H256Z" fill="#E0D0B4"/>
<path d="M85 185C73.8376 185 62.7846 187.199 52.4719 191.47C42.1592 195.742 32.7889 202.003 24.8959 209.896C17.0029 217.789 10.7419 227.159 6.47024 237.472C2.19859 247.785 -4.87922e-07 258.838 0 270H85L85 185Z" fill="#FFC4E4"/>
<path d="M85 85C96.1624 85 107.215 82.8014 117.528 78.5298C127.841 74.2581 137.211 67.9971 145.104 60.1041C152.997 52.2111 159.258 42.8408 163.53 32.5281C167.801 22.2154 170 11.1624 170 0L85 0V85Z" fill="#51D6F9"/>
<path d="M256 42.5C256 65.9721 236.972 85 213.5 85C190.028 85 171 65.9721 171 42.5C171 19.0279 190.028 0 213.5 0C236.972 0 256 19.0279 256 42.5Z" fill="#F8EDD8"/>
<circle cx="213.5" cy="227.5" r="42.5" fill="#F8EDD8"/>
<circle cx="42.5" cy="135.5" r="42.5" fill="#F8EDD8"/>
<path d="M170 100C158.838 100 147.785 102.199 137.472 106.47C127.159 110.742 117.789 117.003 109.896 124.896C102.003 132.789 95.7419 142.159 91.4702 152.472C87.1986 162.785 85 173.838 85 185C85 196.162 87.1986 207.215 91.4702 217.528C95.7419 227.841 102.003 237.211 109.896 245.104C117.789 252.997 127.159 259.258 137.472 263.53C147.785 267.801 158.838 270 170 270L170 185V100Z" fill="#F9F8F7"/>
</svg>
