<svg width="341" height="85" viewBox="0 0 341 85" fill="none" xmlns="http://www.w3.org/2000/svg">
<path d="M85 0C73.8376 0 62.7846 2.1986 52.4719 6.47025C42.1592 10.7419 32.7889 17.0029 24.8959 24.8959C17.0029 32.7889 10.7419 42.1592 6.47024 52.4719C2.19859 62.7846 -4.87922e-07 73.8376 0 85L85 85L85 0Z" fill="#6EF084"/>
<path d="M256 0C256 11.1624 258.199 22.2154 262.47 32.5281C266.742 42.8408 273.003 52.2111 280.896 60.1041C288.789 67.9971 298.159 74.2581 308.472 78.5298C318.785 82.8014 329.838 85 341 85V0L256 0Z" fill="#FFC4E4"/>
<path d="M85 85C96.1624 85 107.215 82.8014 117.528 78.5298C127.841 74.2581 137.211 67.9971 145.104 60.1041C152.997 52.2111 159.258 42.8408 163.53 32.5281C167.801 22.2154 170 11.1624 170 0L85 0V85Z" fill="#51D6F9"/>
<circle cx="213.5" cy="42.5" r="42.5" fill="#F8EDD8"/>
</svg>
