<svg viewBox="0 0 14 16" fill="none" xmlns="http://www.w3.org/2000/svg">
<g id="x" clip-path="url(#clip0_1927_11424)">
<path id="Vector" d="M13.7212 14.1807C13.9249 14.3916 13.8948 14.707 13.6537 14.8857C13.5462 14.962 13.4177 15.0026 13.2855 15.0026C13.1231 15.0026 12.9618 14.942 12.8487 14.8258L6.99979 8.77758L1.14978 14.8276C1.03728 14.9432 0.87585 15.0026 0.71335 15.0026C0.583314 15.0026 0.452171 14.9635 0.345135 14.8844C0.104063 14.7057 0.0739202 14.3904 0.277599 14.1794L6.24904 8.0013L0.277671 1.82508C0.0739917 1.61414 0.104135 1.29883 0.345206 1.12008C0.586278 0.942329 0.946279 0.969673 1.15056 1.17867L6.99979 7.22758L12.8498 1.17758C13.0535 0.968579 13.4141 0.941235 13.6552 1.11899C13.8962 1.2977 13.9264 1.61305 13.7227 1.82399L7.75125 8.00211L13.7212 14.1807Z" fill="black"/>
</g>
<defs>
<clipPath id="clip0_1927_11424">
<rect width="13.7143" height="16" fill="white" transform="translate(0.142578)"/>
</clipPath>
</defs>
</svg>
