<svg viewBox="0 0 24 24" fill="none" xmlns="http://www.w3.org/2000/svg">
<g clip-path="url(#clip0_1815_10300)">
<path d="M23.9632 18.14L22.8735 22.8647C22.7204 23.5327 22.1333 24 21.4457 24C9.62022 23.9991 0.00195312 14.3808 0.00195312 2.55483C0.00195312 1.86768 0.469226 1.2799 1.13721 1.12756L5.86197 0.037774C6.55006 -0.121687 7.25315 0.235483 7.53907 0.887106L9.71959 5.97279C9.97448 6.57182 9.80255 7.26975 9.29867 7.68129L6.77505 9.7076C8.36778 12.9521 11.0058 15.5901 14.2512 17.1838L16.3174 14.662C16.7246 14.1567 17.4278 13.9819 18.0268 14.2414L23.1125 16.4214C23.7242 16.7432 24.1226 17.4556 23.9632 18.14Z" fill="white"/>
</g>
<defs>
<clipPath id="clip0_1815_10300">
<rect width="24" height="24" fill="white"/>
</clipPath>
</defs>
</svg>
