<svg viewBox="0 0 1363 482" fill="none" xmlns="http://www.w3.org/2000/svg">
<g clip-path="url(#clip0_302_114)">
<path d="M1381.08 366.109L1417.84 344.078L1454.59 322.047L1362.08 170.228" stroke="#ffd047" stroke-width="3"/>
<path d="M1333.45 489.545L1389.11 455.366L1355.26 395.447L1311.23 421.256L1268.05 347.332L1329.62 308.461" stroke="#ffd047" stroke-width="3"/>
<path d="M1213.06 348.722L1284.51 466.724L1353.61 425.019L1367 448.365" stroke="#ffd047" stroke-width="3"/>
<path d="M1314.85 353.155L1351.61 331.124L1394.38 304.455L1348.72 229.648" stroke="#ffd047" stroke-width="3"/>
<path d="M1284.43 128.227L1330.1 203.034L1224.74 268.378" stroke="#ffd047" stroke-width="3"/>
<path d="M1369.15 301.782L1347.76 264.649L1321.38 222.414L1226.01 282.212" stroke="#ffd047" stroke-width="3"/>
<path d="M1314.85 406.394L1367.49 376.323L1407.42 446.867" stroke="#ffd047" stroke-width="3"/>
<path d="M1283.86 418.425L1238.41 343.165L1325.87 289.606" stroke="#ffd047" stroke-width="3"/>
<path d="M1241.99 375.726L1220.65 339.847L1318.43 278.415" stroke="#ffd047" stroke-width="3"/>
<path d="M1202.61 354.88L1265.37 458.076L1182.41 508.212" stroke="#ffd047" stroke-width="3"/>
<path d="M1182.33 365.836L1236.72 453.266L1181.36 486.207" stroke="#ffd047" stroke-width="3"/>
<path d="M1352.21 411.423L1306.31 437.72L1251.43 344.822L1267.04 335" stroke="#ffd047" stroke-width="3"/>
<path d="M1199.26 326.563L1319.33 252.827L1350.83 306.763" stroke="#ffd047" stroke-width="3"/>
<path d="M1317.47 379.479L1382.72 340.116L1419.47 318.085L1313.26 143.601" stroke="#ffd047" stroke-width="3"/>
<path d="M63.8406 93.8599L95.7212 105.502L127.602 117.144L174.941 -15.4684" stroke="#ffd047" stroke-width="3"/>
<path d="M-35.8775 126.069L12.9039 143.292L32.9139 92.5914L-4.91996 78.3523L19.0601 14.9279L73.6755 33.4517" stroke="#ffd047" stroke-width="3"/>
<path d="M-9.20428 -18.2277L-46.2237 84.568L13.8885 106.313L6.19208 126.19" stroke="#ffd047" stroke-width="3"/>
<path d="M38.8024 46.6348L70.6829 58.2767L108.421 71.3151L131.706 5.92121" stroke="#ffd047" stroke-width="3"/>
<path d="M162.09 -84.1993L138.805 -18.8054L46.0674 -51.0881" stroke="#ffd047" stroke-width="3"/>
<path d="M97.4879 54.4521L109.684 22.7797L122.529 -14.5136L38.1869 -43.4087" stroke="#ffd047" stroke-width="3"/>
<path d="M6.03376 73.1713L50.781 90.5842L27.2607 150.323" stroke="#ffd047" stroke-width="3"/>
<path d="M-16.8181 60.0946L6.85109 -5.39503L83.4081 21.7393" stroke="#ffd047" stroke-width="3"/>
<path d="M-11.4094 13.0355L0.0398627 -17.9807L86.5901 11.5842" stroke="#ffd047" stroke-width="3"/>
<path d="M21.5564 98.6727L-17.5055 83.5312L12.32 3.44622L26.1479 8.16131" stroke="#ffd047" stroke-width="3"/>
<path d="M-2.44455 -37.7697L102.791 -0.615148L85.2903 45.6553" stroke="#ffd047" stroke-width="3"/>
<path d="M23.906 61.3679L80.6573 81.91L112.538 93.552L166.997 -58.7934" stroke="#ffd047" stroke-width="3"/>
</g>
<defs>
<clipPath id="clip0_302_114">
<rect width="1364" height="482" fill="white" transform="translate(-1)"/>
</clipPath>
</defs>
</svg>
